# xmcd
# 
# Track frame offsets:
#     150
#     30754
#     50842
#     65413
#     87126
#     105084
#     125131
#     142529
# 
# Disc length: 3376
# 
# Revision: 12
# Processed by: cddbd v1.5.2PL0 Copyright (c) Steve Scherf et al.
# Submitted via: fre:ac v1.0.27
# 
DISCID=5a0d2e08
DTITLE=Fleetwood Mac 1 - Boston Blues [Disc 1]
DYEAR=2000
DGENRE=Blues
TTITLE0=Black Magic Woman
TTITLE1=Like It This Way
TTITLE2=Oh Well
TTITLE3=Jumping At Shadows
TTITLE4=Stranger Blues
TTITLE5=Oh Baby
TTITLE6=Got To Move
TTITLE7=Rattlesnake Shake
EXTD=YEAR: 1967
EXTT0=
EXTT1=
EXTT2=
EXTT3=
EXTT4=
EXTT5=
EXTT6=
EXTT7=
PLAYORDER=
